<?xml version="1.0" encoding="UTF-8"?>
<!DOCTYPE svg PUBLIC "-//W3C//DTD SVG 1.1//EN" "http://www.w3.org/Graphics/SVG/1.1/DTD/svg11.dtd">
<svg xmlns="http://www.w3.org/2000/svg" version="1.1" width="807px" height="565px" style="shape-rendering:geometricPrecision; text-rendering:geometricPrecision; image-rendering:optimizeQuality; fill-rule:evenodd; clip-rule:evenodd" xmlns:xlink="http://www.w3.org/1999/xlink">
<g><path style="opacity:0.908" fill="#2683fc" d="M 265.5,99.5 C 276.172,99.3335 286.839,99.5002 297.5,100C 312.69,100.848 325.524,106.682 336,117.5C 340.762,127.055 339.762,136.055 333,144.5C 320.177,156.646 305.343,165.479 288.5,171C 275.859,175.528 262.859,178.528 249.5,180C 245.846,184.955 243.346,190.455 242,196.5C 239.936,197.591 237.769,197.758 235.5,197C 233.86,191.4 234.527,186.066 237.5,181C 227.066,180.908 216.733,179.908 206.5,178C 201.443,175.645 200.776,172.645 204.5,169C 214.304,169.73 224.137,170.563 234,171.5C 237.258,171.507 240.425,171.007 243.5,170C 253.117,157.383 263.784,145.716 275.5,135C 278.174,133.412 281.008,132.245 284,131.5C 288.492,132.306 289.492,134.639 287,138.5C 275.5,147.333 265.333,157.5 256.5,169C 282.093,166.117 304.593,156.284 324,139.5C 331.477,132.434 331.31,125.601 323.5,119C 314.598,113.689 304.931,110.689 294.5,110C 271.808,108.086 249.808,111.086 228.5,119C 217.335,123.508 208.668,130.841 202.5,141C 198.518,142.421 195.852,141.254 194.5,137.5C 198.102,127.728 204.436,120.228 213.5,115C 229.936,106.396 247.269,101.23 265.5,99.5 Z"/></g>
<g><path style="opacity:0.916" fill="#2682fc" d="M 602.5,117.5 C 609.227,116.648 611.393,119.315 609,125.5C 604.833,129 600.667,132.5 596.5,136C 604.548,136.701 612.548,137.701 620.5,139C 626.787,140.753 628.953,144.587 627,150.5C 623.399,153.302 620.232,152.802 617.5,149C 607.223,147.282 596.89,146.616 586.5,147C 579.459,152.374 573.459,158.707 568.5,166C 576.003,163.061 583.836,160.894 592,159.5C 598.355,159.168 600.355,161.834 598,167.5C 587.936,170.189 578.103,173.689 568.5,178C 564.833,178.667 561.167,178.667 557.5,178C 555.879,175.834 555.045,173.334 555,170.5C 544.031,175.56 532.531,177.393 520.5,176C 516.921,174.054 513.587,171.888 510.5,169.5C 496.562,173.388 482.395,176.054 468,177.5C 460.624,177.732 455.124,174.732 451.5,168.5C 444.745,169.551 438.079,171.051 431.5,173C 423.414,185.365 412.414,193.865 398.5,198.5C 391.897,197.647 389.73,193.98 392,187.5C 394.167,184 397,181.167 400.5,179C 406.675,175.412 413.009,172.078 419.5,169C 415.524,168.926 411.524,169.093 407.5,169.5C 402.54,169.434 397.707,168.767 393,167.5C 390.098,172.74 385.765,176.074 380,177.5C 374.565,176.894 372.398,173.894 373.5,168.5C 366.825,168.666 360.158,168.5 353.5,168C 351.782,167.654 350.115,167.154 348.5,166.5C 345.349,169.15 342.349,171.984 339.5,175C 333.749,178.949 330.082,177.616 328.5,171C 328.946,167.825 329.446,164.658 330,161.5C 333.333,158.833 336.667,158.833 340,161.5C 342.062,159.099 343.729,156.433 345,153.5C 349.639,151.318 352.639,152.651 354,157.5C 355.067,158.191 356.234,158.691 357.5,159C 366.515,159.38 375.515,159.047 384.5,158C 385.774,156.779 387.274,155.946 389,155.5C 394.071,157.848 399.405,159.181 405,159.5C 413.031,157.705 420.864,158.205 428.5,161C 429.701,161.903 430.535,163.069 431,164.5C 434.347,162.94 437.847,161.773 441.5,161C 449.619,159.987 457.619,158.487 465.5,156.5C 468.226,156.682 470.893,157.182 473.5,158C 477.041,160.282 477.374,162.949 474.5,166C 475.333,166.167 476.167,166.333 477,166.5C 491.284,163.243 505.617,160.243 520,157.5C 526.196,157.531 528.03,160.364 525.5,166C 528.5,166.667 531.5,166.667 534.5,166C 543.838,163.332 553.171,160.665 562.5,158C 565.464,154.034 568.797,150.367 572.5,147C 555.069,146.623 537.736,147.79 520.5,150.5C 519.228,150.43 518.062,150.097 517,149.5C 516.506,147.866 516.34,146.199 516.5,144.5C 537.814,139.262 559.48,136.762 581.5,137C 588.749,130.578 595.749,124.078 602.5,117.5 Z"/></g>
<g><path style="opacity:0.895" fill="#2683fc" d="M 430.5,132.5 C 438.005,131.988 445.339,132.822 452.5,135C 456.104,136.334 457.271,138.834 456,142.5C 451.281,144.865 446.781,147.699 442.5,151C 435.349,152.393 429.183,150.56 424,145.5C 421.89,139.054 424.056,134.72 430.5,132.5 Z M 432.5,142.5 C 435.355,141.197 438.355,141.197 441.5,142.5C 438.545,145.019 435.545,145.019 432.5,142.5 Z"/></g>
<g><path style="opacity:0.928" fill="white" d="M 359.5,202.5 C 407.43,200.921 434.93,223.921 442,271.5C 445.224,295.598 441.557,318.598 431,340.5C 411.278,369.639 384.111,380.139 349.5,372C 328.731,365.566 313.897,352.4 305,332.5C 293.135,299.941 294.469,267.941 309,236.5C 320.602,217.29 337.435,205.957 359.5,202.5 Z M 366.5,242.5 C 378.348,242.503 386.182,248.17 390,259.5C 391.472,263.723 392.472,268.057 393,272.5C 394.361,287.686 393.361,302.686 390,317.5C 384.285,332.616 374.118,337.116 359.5,331C 351.984,323.799 347.817,314.965 347,304.5C 345.878,290.39 346.545,276.39 349,262.5C 351.552,252.792 357.386,246.125 366.5,242.5 Z"/></g>
<g><path style="opacity:0.928" fill="white" d="M 518.5,202.5 C 566.417,200.907 593.917,223.907 601,271.5C 604.369,295.618 600.703,318.618 590,340.5C 570.302,369.748 543.135,380.248 508.5,372C 483.095,363.594 466.929,346.427 460,320.5C 452.774,291.548 455.441,263.548 468,236.5C 479.913,217.737 496.747,206.403 518.5,202.5 Z M 525.5,242.5 C 536.215,242.056 543.715,246.723 548,256.5C 549.961,261.677 551.294,267.01 552,272.5C 552.667,282.833 552.667,293.167 552,303.5C 551.476,314.377 547.31,323.543 539.5,331C 524.882,337.116 514.715,332.616 509,317.5C 504.755,299.243 504.422,280.909 508,262.5C 510.552,252.792 516.386,246.125 525.5,242.5 Z"/></g>
<g><path style="opacity:0.929" fill="white" d="M 677.5,202.5 C 725.42,200.91 752.92,223.91 760,271.5C 763.368,295.625 759.701,318.625 749,340.5C 732.317,366.588 708.483,377.755 677.5,374C 650.977,369.141 632.477,354.308 622,329.5C 612.207,302.144 612.207,274.81 622,247.5C 632.386,222.402 650.886,207.402 677.5,202.5 Z M 684.5,242.5 C 695.207,242.045 702.707,246.712 707,256.5C 708.961,261.677 710.294,267.01 711,272.5C 711.667,283.167 711.667,293.833 711,304.5C 710.32,316.618 705.154,326.118 695.5,333C 681.839,336.081 672.672,330.914 668,317.5C 663.755,299.243 663.422,280.909 667,262.5C 669.552,252.792 675.386,246.125 684.5,242.5 Z"/></g>
<g><path style="opacity:0.92" fill="white" d="M 197.5,206.5 C 223.741,206.172 249.908,206.505 276,207.5C 276.667,261.833 276.667,316.167 276,370.5C 260,371.833 244,371.833 228,370.5C 227.5,328.501 227.333,286.501 227.5,244.5C 217.5,244.5 207.5,244.5 197.5,244.5C 197.5,231.833 197.5,219.167 197.5,206.5 Z"/></g>
<g><path style="opacity:0.997" fill="#f8bd5c" d="M 223.5,382.5 C 291.17,382.167 358.837,382.5 426.5,383.5C 427.816,409.821 427.816,436.154 426.5,462.5C 358.833,462.5 291.167,462.5 223.5,462.5C 223.5,435.833 223.5,409.167 223.5,382.5 Z"/></g>
<g><path style="opacity:1" fill="#4d3b1d" d="M 287.5,403.5 C 287.5,403.167 287.5,402.833 287.5,402.5C 294.5,402.5 301.5,402.5 308.5,402.5C 308.664,405.187 308.497,407.854 308,410.5C 306.315,412.017 304.815,413.684 303.5,415.5C 304.77,416.288 305.77,417.288 306.5,418.5C 304.883,417.962 303.216,417.629 301.5,417.5C 302.264,414.213 304.097,411.546 307,409.5C 307.495,407.527 307.662,405.527 307.5,403.5C 300.833,403.5 294.167,403.5 287.5,403.5 Z"/></g>
<g><path style="opacity:1" fill="#140f07" d="M 339.5,401.5 C 358.285,402.012 364.452,411.345 358,429.5C 353.56,438.296 346.727,440.796 337.5,437C 330.07,428.118 328.57,418.284 333,407.5C 335.063,405.266 337.229,403.266 339.5,401.5 Z"/></g>
<g><path style="opacity:1" fill="#110c06" d="M 287.5,403.5 C 294.167,403.5 300.833,403.5 307.5,403.5C 307.662,405.527 307.495,407.527 307,409.5C 304.097,411.546 302.264,414.213 301.5,417.5C 303.216,417.629 304.883,417.962 306.5,418.5C 312.235,425.145 311.568,431.312 304.5,437C 299.167,439 293.833,439 288.5,437C 287.484,436.481 286.818,435.647 286.5,434.5C 287.046,432.865 287.38,431.199 287.5,429.5C 290.093,430.853 292.927,431.519 296,431.5C 299.271,432.101 301.438,430.934 302.5,428C 302.507,426.188 301.84,424.688 300.5,423.5C 297.579,422.593 294.579,422.26 291.5,422.5C 291.338,420.473 291.505,418.473 292,416.5C 292.383,415.944 292.883,415.611 293.5,415.5C 295.867,414.129 297.533,412.129 298.5,409.5C 294.893,408.511 291.226,408.177 287.5,408.5C 287.5,406.833 287.5,405.167 287.5,403.5 Z"/></g>
<g><path style="opacity:1" fill="#9b763a" d="M 287.5,402.5 C 287.5,402.833 287.5,403.167 287.5,403.5C 287.5,405.167 287.5,406.833 287.5,408.5C 291.226,408.177 294.893,408.511 298.5,409.5C 297.533,412.129 295.867,414.129 293.5,415.5C 293.703,413.956 294.37,412.622 295.5,411.5C 292.572,410.516 289.572,410.183 286.5,410.5C 286.194,407.615 286.527,404.948 287.5,402.5 Z"/></g>
<g><path style="opacity:1" fill="#a9813f" d="M 351.5,425.5 C 351.92,420.337 350.92,415.504 348.5,411C 345.331,410.022 342.497,410.522 340,412.5C 338.763,416.06 338.263,419.727 338.5,423.5C 336.293,417.502 337.626,412.335 342.5,408C 346.697,407.172 349.864,408.672 352,412.5C 352.814,417.02 352.647,421.354 351.5,425.5 Z"/></g>
<g><path style="opacity:0.695" fill="white" d="M 461.5,409.5 C 464.833,409.5 468.167,409.5 471.5,409.5C 471.334,417.174 471.5,424.841 472,432.5C 472.998,438.41 476.165,440.244 481.5,438C 482.126,437.25 482.626,436.416 483,435.5C 483.333,427.167 483.667,418.833 484,410.5C 487.394,409.544 490.894,409.211 494.5,409.5C 494.899,419.898 494.399,430.232 493,440.5C 486.257,449.975 477.757,451.808 467.5,446C 465.044,443.592 463.211,440.759 462,437.5C 461.5,428.173 461.334,418.839 461.5,409.5 Z"/></g>
<g><path style="opacity:0.705" fill="white" d="M 511.5,409.5 C 514.898,409.18 518.232,409.513 521.5,410.5C 526.142,416.976 530.975,423.309 536,429.5C 536.5,422.842 536.666,416.175 536.5,409.5C 540.106,409.211 543.606,409.544 547,410.5C 547.667,422.833 547.667,435.167 547,447.5C 543.591,448.622 540.091,448.789 536.5,448C 532,442.167 527.5,436.333 523,430.5C 522.667,436.167 522.333,441.833 522,447.5C 518.606,448.456 515.106,448.789 511.5,448.5C 511.5,435.5 511.5,422.5 511.5,409.5 Z"/></g>
<g><path style="opacity:0.658" fill="white" d="M 563.5,409.5 C 567.106,409.211 570.606,409.544 574,410.5C 574.667,422.833 574.667,435.167 574,447.5C 570.606,448.456 567.106,448.789 563.5,448.5C 563.5,435.5 563.5,422.5 563.5,409.5 Z"/></g>
<g><path style="opacity:0.72" fill="white" d="M 591.5,409.5 C 599.571,409.137 607.571,409.637 615.5,411C 621.263,416.103 621.93,421.77 617.5,428C 622.71,432.12 623.877,437.286 621,443.5C 619.457,445.378 617.624,446.878 615.5,448C 607.507,448.5 599.507,448.666 591.5,448.5C 591.5,435.5 591.5,422.5 591.5,409.5 Z M 602.5,419.5 C 604.527,419.338 606.527,419.505 608.5,420C 609.833,421.333 609.833,422.667 608.5,424C 606.527,424.495 604.527,424.662 602.5,424.5C 602.5,422.833 602.5,421.167 602.5,419.5 Z M 602.5,433.5 C 605.545,433.508 608.545,433.841 611.5,434.5C 611.67,435.822 611.337,436.989 610.5,438C 607.986,439.252 605.32,439.752 602.5,439.5C 602.5,437.5 602.5,435.5 602.5,433.5 Z"/></g>
<g><path style="opacity:0.678" fill="white" d="M 636.5,409.5 C 645.839,409.334 655.173,409.5 664.5,410C 665.833,413 665.833,416 664.5,419C 658.843,419.499 653.176,419.666 647.5,419.5C 647.5,421.167 647.5,422.833 647.5,424.5C 652.833,424.5 658.167,424.5 663.5,424.5C 663.784,427.777 663.451,430.943 662.5,434C 657.511,434.499 652.511,434.666 647.5,434.5C 647.5,435.833 647.5,437.167 647.5,438.5C 653.176,438.334 658.843,438.501 664.5,439C 665.451,442.057 665.784,445.223 665.5,448.5C 655.833,448.5 646.167,448.5 636.5,448.5C 636.5,435.5 636.5,422.5 636.5,409.5 Z"/></g>
<g><path style="opacity:0.696" fill="white" d="M 680.5,409.5 C 683.85,409.335 687.183,409.502 690.5,410C 695.699,416.232 700.532,422.732 705,429.5C 705.5,422.842 705.666,416.175 705.5,409.5C 709.167,409.5 712.833,409.5 716.5,409.5C 716.5,422.5 716.5,435.5 716.5,448.5C 712.818,448.665 709.152,448.499 705.5,448C 701,442.167 696.5,436.333 692,430.5C 691.501,436.491 691.334,442.491 691.5,448.5C 687.833,448.5 684.167,448.5 680.5,448.5C 680.5,435.5 680.5,422.5 680.5,409.5 Z"/></g>
<g><path style="opacity:1" fill="#f0b85a" d="M 351.5,425.5 C 349.539,432.894 345.705,434.227 340,429.5C 339.187,427.564 338.687,425.564 338.5,423.5C 338.263,419.727 338.763,416.06 340,412.5C 342.497,410.522 345.331,410.022 348.5,411C 350.92,415.504 351.92,420.337 351.5,425.5 Z"/></g>
<g><path style="opacity:1" fill="#19130a" d="M 316.5,430.5 C 323.158,429.344 325.158,431.844 322.5,438C 316.258,438.923 314.258,436.423 316.5,430.5 Z"/></g>
</svg>
